<?xml version="1.0" encoding="utf-8"?>
<!-- Generator: Adobe Illustrator 15.1.0, SVG Export Plug-In . SVG Version: 6.00 Build 0)  -->
<!DOCTYPE svg PUBLIC "-//W3C//DTD SVG 1.1//EN" "http://www.w3.org/Graphics/SVG/1.1/DTD/svg11.dtd">
<svg version="1.1" xmlns="http://www.w3.org/2000/svg" xmlns:xlink="http://www.w3.org/1999/xlink" x="0px" y="0px"
	 width="1833.901px" height="340.404px" viewBox="-15.401 -53.904 1833.901 340.404"
	 enable-background="new -15.401 -53.904 1833.901 340.404" xml:space="preserve">
<g id="Layer_1" display="none">
	<g display="inline">
		<path fill="#EA4535" d="M33.378,32.596c0,14.201-11.111,24.677-24.753,24.677c-13.643,0-24.753-10.477-24.753-24.677
			c0-14.309,11.11-24.684,24.753-24.684C22.267,7.912,33.378,18.287,33.378,32.596z M22.547,32.596
			c0-8.871-6.44-14.954-13.92-14.954c-7.484,0-13.919,6.08-13.919,14.954c0,8.793,6.435,14.949,13.919,14.949
			C16.104,47.545,22.547,41.371,22.547,32.596z"/>
		<path fill="#F6B917" d="M86.781,32.596c0,14.201-11.121,24.677-24.753,24.677c-13.642,0-24.753-10.477-24.753-24.677
			c0-14.299,11.111-24.684,24.753-24.684C75.66,7.912,86.781,18.287,86.781,32.596z M75.941,32.596
			c0-8.871-6.441-14.954-13.913-14.954c-7.478,0-13.919,6.08-13.919,14.954c0,8.793,6.441,14.949,13.919,14.949
			C69.5,47.545,75.941,41.371,75.941,32.596z"/>
		<path fill="#547EBF" d="M137.959,9.408v44.303c0,18.227-10.749,25.666-23.457,25.666c-11.955,0-19.162-7.996-21.865-14.539
			l9.421-3.925c1.689,4.007,5.805,8.751,12.438,8.751c8.131,0,13.17-5.012,13.17-14.473V51.65h-0.371
			c-2.43,2.99-7.109,5.607-12.993,5.607c-12.346,0-23.646-10.749-23.646-24.584c0-13.924,11.301-24.77,23.646-24.77
			c5.873,0,10.552,2.618,12.993,5.521h0.371V9.414h10.29V9.408H137.959z M128.438,32.68c0-8.688-5.794-15.035-13.176-15.035
			c-7.478,0-13.739,6.348-13.739,15.035c0,8.607,6.262,14.865,13.739,14.865C122.644,47.545,128.438,41.287,128.438,32.68z"/>
		<path fill="#35A851" d="M154.925-16.548v72.304h-10.563v-72.304H154.925z"/>
		<path fill="#EA4535" d="M196.12,40.715l8.399,5.601c-2.705,4.022-9.256,10.948-20.552,10.948c-14.026,0-24.5-10.835-24.5-24.685
			c0-14.667,10.569-24.667,23.283-24.667c12.806,0,19.065,10.179,21.116,15.7l1.132,2.8L172.003,40.07
			c2.534,4.953,6.459,7.475,11.966,7.475C189.486,47.545,193.311,44.832,196.12,40.715L196.12,40.715z M170.218,31.842l22.052-9.149
			c-1.209-3.091-4.862-5.248-9.147-5.248C177.611,17.442,169.941,22.311,170.218,31.842z"/>
		<path fill="#547EBF" d="M-56.138,26.17V15.707h35.286c0.333,1.826,0.515,3.988,0.515,6.311c0,7.856-2.146,17.573-9.07,24.493
			c-6.723,7.017-15.325,10.753-26.714,10.753C-77.248,57.262-95,40.051-95,18.93c0-21.106,17.752-38.307,38.879-38.307
			c11.679,0,20.002,4.581,26.249,10.566l-7.386,7.383c-4.483-4.204-10.563-7.475-18.88-7.475c-15.419,0-27.479,12.419-27.479,27.832
			c0,15.428,12.062,27.855,27.479,27.855c10.006,0,15.697-4.02,19.342-7.663c2.96-2.956,4.908-7.185,5.687-12.974L-56.138,26.17z"/>
	</g>
</g>
<g id="Layer_2" display="none">
	<g display="inline">
		<g>
			<g>
				<g>
					<defs>
						<path id="SVGID_1_" d="M55.113,57.884l-2.305,5.733l-2.306-5.733h-2.831v9.489h2.02v-6.645l2.676,6.645h0.882l2.675-6.645
							v6.645h2.034v-9.489H55.113z M23.085,62.637c0-1.779,1.124-3.117,2.874-3.117c1.749,0,2.888,1.338,2.888,3.117
							c0,1.764-1.139,3.115-2.888,3.115C24.209,65.752,23.085,64.398,23.085,62.637 M21.008,62.637c0,2.858,2.092,4.907,4.951,4.907
							c2.873,0,4.965-2.049,4.965-4.907c0-2.861-2.092-4.908-4.965-4.908C23.1,57.729,21.008,59.773,21.008,62.637 M36.417,62.637
							c0-1.779,1.124-3.117,2.874-3.117c1.749,0,2.888,1.338,2.888,3.117c0,1.764-1.139,3.115-2.888,3.115
							C37.541,65.752,36.417,64.398,36.417,62.637 M34.34,62.637c0,2.858,2.091,4.907,4.951,4.907c2.874,0,4.965-2.049,4.965-4.907
							c0-2.861-2.091-4.908-4.965-4.908C36.431,57.729,34.34,59.773,34.34,62.637 M22.608,45.248v9.488h6.715V52.96h-4.694v-2.147
							h4.595v-1.777h-4.595v-2.008h4.694V45.25L22.608,45.248L22.608,45.248z M41.524,45.248v5.962l-4.396-5.962h-2.077v9.488h2.02
							v-6.188l4.524,6.188h1.948v-9.488H41.524z M50.994,47.025h2.119c0.812,0,1.423,0.483,1.423,1.281
							c0,0.795-0.611,1.279-1.423,1.279h-2.119V47.025z M48.974,45.248v9.488h2.021v-3.37h1.479l1.863,3.37h2.32l-2.135-3.612
							c1.024-0.242,2.077-1.14,2.077-2.815c0-1.766-1.209-3.061-3.187-3.061H48.974z M37.477,34.392h2.12
							c0.811,0,1.422,0.483,1.422,1.28s-0.611,1.28-1.422,1.28h-2.12V34.392z M35.457,32.611V42.1h2.02v-3.371h1.479L40.82,42.1
							h2.319l-2.134-3.61c1.023-0.243,2.076-1.14,2.076-2.817c0-1.765-1.209-3.061-3.187-3.061H35.457z M49.458,32.611V42.1h6.715
							v-1.775h-4.695v-2.148h4.596v-1.777h-4.596v-2.006h4.695v-1.779L49.458,32.611L49.458,32.611z M21.421,37.364
							c0,2.987,2.275,4.923,5.05,4.923c1.722,0,3.073-0.712,4.04-1.793v-3.643h-4.523v1.765h2.504v1.139
							c-0.385,0.354-1.181,0.726-2.021,0.726c-1.721,0-2.973-1.321-2.973-3.114c0-1.792,1.252-3.115,2.973-3.115
							c1.011,0,1.821,0.568,2.248,1.236l1.679-0.91c-0.711-1.123-1.949-2.119-3.927-2.119
							C23.696,32.456,21.421,34.361,21.421,37.364 M11.613,22.13h55.74v55.74h-55.74V22.13z M9,80.482h60.966V19.518H9V80.482z"/>
					</defs>
					<clipPath id="SVGID_2_">
						<use xlink:href="#SVGID_1_"  overflow="visible"/>
					</clipPath>
					
						<linearGradient id="SVGID_3_" gradientUnits="userSpaceOnUse" x1="-149.874" y1="389.2188" x2="-149.7279" y2="389.2188" gradientTransform="matrix(420 420 420 -420 -100516 226438.5)">
						<stop  offset="0" style="stop-color:#07E1FD"/>
						<stop  offset="0.2456" style="stop-color:#05D6DF"/>
						<stop  offset="0.5568" style="stop-color:#02CABF"/>
						<stop  offset="0.8194" style="stop-color:#01C3AC"/>
						<stop  offset="1" style="stop-color:#00C0A5"/>
					</linearGradient>
					<polygon clip-path="url(#SVGID_2_)" fill="url(#SVGID_3_)" points="39.483,-10.965 100.448,50 39.483,110.966 -21.482,50 					
						"/>
				</g>
			</g>
		</g>
		<g>
			<path fill="#00C0A5" d="M101.078,59.645c-0.897,1.285-2.148,2.246-3.754,2.883c-1.605,0.637-3.475,0.953-5.607,0.953
				c-2.157,0-4.072-0.506-5.744-1.518c-1.672-1.012-2.966-2.451-3.881-4.316c-0.915-1.867-1.385-4.028-1.408-6.488v-2.311
				c0-3.986,0.93-7.076,2.79-9.27c1.859-2.193,4.474-3.29,7.843-3.29c2.763,0,4.986,0.706,6.671,2.116
				c1.685,1.412,2.715,3.414,3.091,6.009h-3.49c-0.654-3.517-2.739-5.271-6.253-5.271c-2.339,0-4.111,0.82-5.316,2.465
				c-1.206,1.645-1.815,4.022-1.827,7.142v2.165c0,2.971,0.679,5.333,2.036,7.086c1.356,1.752,3.192,2.629,5.507,2.629
				c1.31,0,2.454-0.146,3.436-0.438s1.794-0.778,2.437-1.469v-5.931h-6.126v-2.854h9.598v9.707H101.078z"/>
			<path fill="#00C0A5" d="M116.675,52.41h-6.216v10.707h-3.509V36.65h8.762c2.98,0,5.274,0.68,6.88,2.035
				c1.605,1.357,2.408,3.334,2.408,5.926c0,1.647-0.445,3.084-1.336,4.31c-0.891,1.224-2.13,2.14-3.717,2.744l6.217,11.231v0.221
				h-3.745L116.675,52.41z M110.459,49.557h5.362c1.732,0,3.11-0.449,4.135-1.348c1.024-0.896,1.536-2.102,1.536-3.605
				c0-1.639-0.488-2.895-1.463-3.77c-0.977-0.874-2.385-1.316-4.227-1.329h-5.343V49.557L110.459,49.557z"/>
			<path fill="#00C0A5" d="M144.924,50.884h-11.47v9.38h13.323v2.854h-16.813V36.65h16.632v2.854h-13.142v8.523h11.47V50.884z"/>
			<path fill="#00C0A5" d="M166.156,50.884h-11.471v9.38h13.324v2.854h-16.814V36.65h16.633v2.854h-13.141v8.523h11.47
				L166.156,50.884L166.156,50.884z"/>
			<path fill="#00C0A5" d="M192.77,63.117h-3.508l-13.324-20.395v20.396h-3.508V36.65h3.508l13.359,20.484V36.65h3.473V63.117
				L192.77,63.117z"/>
			<path fill="#00C0A5" d="M218.038,52.41h-6.218v10.707h-3.508V36.65h8.762c2.98,0,5.273,0.68,6.881,2.035
				c1.605,1.356,2.408,3.332,2.408,5.926c0,1.647-0.445,3.084-1.336,4.31c-0.893,1.224-2.131,2.14-3.719,2.744l6.217,11.231v0.221
				h-3.743L218.038,52.41z M211.82,49.557h5.363c1.731,0,3.109-0.449,4.135-1.348c1.022-0.896,1.537-2.102,1.537-3.605
				c0-1.639-0.488-2.895-1.465-3.77c-0.977-0.874-2.385-1.316-4.227-1.329h-5.346v10.052H211.82z"/>
			<path fill="#00C0A5" d="M251.686,50.736c0,2.596-0.437,4.856-1.309,6.789c-0.873,1.935-2.107,3.408-3.708,4.428
				s-3.466,1.525-5.599,1.525c-2.086,0-3.934-0.512-5.545-1.535s-2.862-2.483-3.754-4.381c-0.892-1.896-1.349-4.094-1.371-6.59
				v-1.908c0-2.545,0.44-4.793,1.326-6.744c0.885-1.949,2.137-3.442,3.754-4.479c1.617-1.035,3.469-1.554,5.554-1.554
				c2.12,0,3.989,0.512,5.606,1.535c1.616,1.022,2.861,2.509,3.734,4.452c0.872,1.945,1.311,4.209,1.311,6.789V50.736
				L251.686,50.736z M248.214,49.027c0-3.137-0.631-5.547-1.891-7.225c-1.261-1.679-3.023-2.518-5.289-2.518
				c-2.206,0-3.942,0.839-5.208,2.518c-1.268,1.678-1.918,4.008-1.954,6.988v1.943c0,3.043,0.64,5.434,1.918,7.173
				c1.278,1.737,3.038,2.606,5.28,2.606c2.254,0,3.998-0.82,5.234-2.463c1.234-1.642,1.87-3.996,1.907-7.062L248.214,49.027
				L248.214,49.027z"/>
			<path fill="#00C0A5" d="M277.354,50.736c0,2.596-0.438,4.856-1.31,6.789c-0.872,1.935-2.108,3.408-3.708,4.428
				s-3.466,1.525-5.6,1.525c-2.084,0-3.932-0.512-5.543-1.535s-2.863-2.483-3.754-4.381c-0.893-1.896-1.35-4.094-1.373-6.59v-1.908
				c0-2.545,0.441-4.793,1.328-6.744c0.885-1.949,2.135-3.442,3.754-4.479c1.617-1.035,3.468-1.554,5.553-1.554
				c2.119,0,3.99,0.512,5.607,1.535c1.616,1.022,2.861,2.509,3.733,4.452c0.872,1.945,1.31,4.209,1.31,6.789v1.672H277.354z
				 M273.881,49.027c0-3.137-0.63-5.547-1.891-7.225c-1.26-1.679-3.023-2.518-5.289-2.518c-2.206,0-3.941,0.839-5.208,2.518
				c-1.267,1.678-1.917,4.008-1.954,6.988v1.943c0,3.043,0.641,5.434,1.918,7.173c1.277,1.737,3.038,2.606,5.279,2.606
				c2.255,0,4-0.82,5.236-2.463c1.233-1.642,1.87-3.996,1.906-7.062L273.881,49.027L273.881,49.027z"/>
			<path fill="#00C0A5" d="M287.17,36.65l8.652,21.595l8.652-21.595H309v26.467h-3.488V52.811l0.326-11.123l-8.688,21.432h-2.672
				l-8.672-21.376l0.346,11.067v10.309h-3.489V36.65H287.17z"/>
		</g>
	</g>
</g>
<g id="Layer_3">
	<g>
		<defs>
			<path id="SVGID_4_" d="M158.323,21.683L51.491,83.362c-14.634,8.449-19.648,27.162-11.199,41.795
				c8.449,14.637,27.161,19.65,41.795,11.2l106.831-61.679c14.635-8.45,19.649-27.162,11.199-41.796
				C191.671,18.249,172.956,13.234,158.323,21.683z"/>
		</defs>
		<clipPath id="SVGID_5_">
			<use xlink:href="#SVGID_4_"  overflow="visible"/>
		</clipPath>
		<g clip-path="url(#SVGID_5_)">
			<defs>
				<rect id="SVGID_6_" x="-19.644" y="-132.515" width="486.634" height="486.634"/>
			</defs>
			<clipPath id="SVGID_7_">
				<use xlink:href="#SVGID_6_"  overflow="visible"/>
			</clipPath>
			
				<rect x="23.073" y="43.567" transform="matrix(0.866 -0.5 0.5 0.866 -23.4053 70.6894)" clip-path="url(#SVGID_7_)" fill="#EA4334" width="194.265" height="70.906"/>
		</g>
	</g>
	<g>
		<defs>
			<path id="SVGID_8_" d="M187.947,145.526L81.117,83.848c-14.635-8.449-33.347-3.435-41.796,11.2
				c-8.449,14.634-3.435,33.347,11.199,41.796l106.832,61.68c14.633,8.448,33.348,3.433,41.795-11.2
				C207.597,172.688,202.582,153.976,187.947,145.526z"/>
		</defs>
		<clipPath id="SVGID_9_">
			<use xlink:href="#SVGID_8_"  overflow="visible"/>
		</clipPath>
		<g clip-path="url(#SVGID_9_)">
			<defs>
				<rect id="SVGID_10_" x="-19.644" y="-132.515" width="486.634" height="486.634"/>
			</defs>
			<clipPath id="SVGID_11_">
				<use xlink:href="#SVGID_10_"  overflow="visible"/>
			</clipPath>
			
				<rect x="22.101" y="105.732" transform="matrix(0.866 0.5 -0.5 0.866 86.5676 -40.7021)" clip-path="url(#SVGID_11_)" fill="#4285F4" width="194.267" height="70.907"/>
		</g>
	</g>
	<g>
		<defs>
			<path id="SVGID_12_" d="M259.398,146.499L366.231,84.82c14.633-8.45,33.345-3.437,41.795,11.197
				c8.448,14.635,3.434,33.347-11.2,41.797l-106.832,61.679c-14.634,8.449-33.346,3.435-41.796-11.198
				C239.751,173.659,244.764,154.945,259.398,146.499z"/>
		</defs>
		<clipPath id="SVGID_13_">
			<use xlink:href="#SVGID_12_"  overflow="visible"/>
		</clipPath>
		<g clip-path="url(#SVGID_13_)">
			<defs>
				<rect id="SVGID_14_" x="-19.644" y="-132.515" width="486.634" height="486.634"/>
			</defs>
			<clipPath id="SVGID_15_">
				<use xlink:href="#SVGID_14_"  overflow="visible"/>
			</clipPath>
			
				<rect x="230.98" y="106.704" transform="matrix(-0.866 0.5 -0.5 -0.866 683.3451 101.2111)" clip-path="url(#SVGID_15_)" fill="#FCBC05" width="194.265" height="70.906"/>
		</g>
	</g>
	<g>
		<defs>
			<path id="SVGID_16_" d="M290.967,22.655l106.831,61.679c14.635,8.449,19.647,27.162,11.199,41.796
				c-8.447,14.635-27.162,19.647-41.796,11.198L260.37,75.65c-14.635-8.45-19.647-27.162-11.199-41.797
				C257.62,19.22,276.331,14.206,290.967,22.655z"/>
		</defs>
		<clipPath id="SVGID_17_">
			<use xlink:href="#SVGID_16_"  overflow="visible"/>
		</clipPath>
		<g clip-path="url(#SVGID_17_)">
			<defs>
				<rect id="SVGID_18_" x="-19.644" y="-132.515" width="486.634" height="486.634"/>
			</defs>
			<clipPath id="SVGID_19_">
				<use xlink:href="#SVGID_18_"  overflow="visible"/>
			</clipPath>
			
				<rect x="231.952" y="44.538" transform="matrix(-0.866 -0.5 0.5 -0.866 574.0839 313.8079)" clip-path="url(#SVGID_19_)" fill="#0D9D58" width="194.265" height="70.908"/>
		</g>
	</g>
	<g>
		<path fill="#5F6368" d="M494.546,164.229c-8.644-4.981-15.507-11.844-20.589-20.59c-5.086-8.742-7.626-18.401-7.626-28.977
			c0-10.574,2.54-20.231,7.626-28.978c5.082-8.743,11.945-15.606,20.589-20.589c8.641-4.98,18.096-7.474,28.367-7.474
			c8.03,0,15.58,1.425,22.648,4.271c7.065,2.849,12.886,6.862,17.462,12.048l-9.304,9.304c-3.457-4.27-7.88-7.55-13.269-9.836
			c-5.39-2.289-11.185-3.433-17.386-3.433c-7.728,0-14.922,1.857-21.58,5.566c-6.66,3.713-11.998,8.949-16.015,15.71
			c-4.018,6.762-6.023,14.563-6.023,23.41c0,8.846,2.006,16.649,6.023,23.41c4.017,6.764,9.381,11.998,16.091,15.709
			c6.711,3.713,13.878,5.566,21.504,5.566c7.32,0,13.444-1.144,18.378-3.431c4.931-2.288,9.174-5.312,12.734-9.075
			c2.643-2.845,4.778-6.277,6.405-10.294c1.625-4.016,2.644-8.465,3.051-13.345h-40.416v-12.049h52.465
			c0.507,2.848,0.763,5.49,0.763,7.93c0,6.711-1.068,13.246-3.203,19.599c-2.135,6.355-5.544,11.922-10.219,16.7
			c-10.066,10.88-23.437,16.318-40.11,16.318C512.642,171.702,503.187,169.212,494.546,164.229z"/>
		<path fill="#5F6368" d="M594.287,60.063h32.941c11.185,0,20.944,2.314,29.283,6.94c8.336,4.628,14.741,11.056,19.217,19.292
			c4.472,8.235,6.709,17.691,6.709,28.367c0,10.675-2.237,20.132-6.709,28.366c-4.476,8.236-10.881,14.668-19.217,19.293
			c-8.339,4.628-18.099,6.939-29.283,6.939h-32.941V60.063z M627.229,156.908c12.912,0,23.156-3.71,30.731-11.133
			c7.573-7.421,11.362-17.791,11.362-31.112c0-13.318-3.789-23.689-11.362-31.112c-7.575-7.421-17.819-11.133-30.731-11.133h-20.132
			v84.49H627.229z"/>
		<path fill="#5F6368" d="M723.005,164.229c-8.644-4.981-15.507-11.844-20.589-20.59c-5.086-8.742-7.626-18.401-7.626-28.977
			c0-10.574,2.54-20.231,7.626-28.978c5.082-8.743,11.945-15.606,20.589-20.589c8.641-4.98,18.096-7.474,28.367-7.474
			c8.03,0,15.58,1.425,22.648,4.271c7.065,2.849,12.887,6.862,17.462,12.048l-9.304,9.304c-3.457-4.27-7.88-7.55-13.269-9.836
			c-5.39-2.289-11.185-3.433-17.386-3.433c-7.728,0-14.922,1.857-21.58,5.566c-6.66,3.713-11.998,8.949-16.015,15.71
			c-4.018,6.762-6.023,14.563-6.023,23.41c0,8.846,2.006,16.649,6.023,23.41c4.017,6.764,9.381,11.998,16.091,15.709
			c6.711,3.713,13.878,5.566,21.504,5.566c7.32,0,13.444-1.144,18.378-3.431c4.931-2.288,9.174-5.312,12.734-9.075
			c2.643-2.845,4.778-6.277,6.405-10.294c1.625-4.016,2.644-8.465,3.051-13.345h-40.416v-12.049h52.465
			c0.507,2.848,0.763,5.49,0.763,7.93c0,6.711-1.068,13.246-3.203,19.599c-2.135,6.355-5.543,11.922-10.219,16.7
			c-10.066,10.88-23.437,16.318-40.11,16.318C741.101,171.702,731.646,169.212,723.005,164.229z"/>
		<path fill="#5F6368" d="M879.631,164.229c-8.643-4.981-15.506-11.844-20.588-20.59c-5.086-8.742-7.626-18.401-7.626-28.977
			c0-10.574,2.54-20.231,7.626-28.978c5.082-8.743,11.945-15.606,20.588-20.589c8.641-4.98,18.097-7.474,28.368-7.474
			c8.03,0,15.58,1.425,22.647,4.271c7.065,2.849,12.887,6.862,17.463,12.048l-9.304,9.304c-3.457-4.27-7.881-7.55-13.269-9.836
			c-5.391-2.289-11.186-3.433-17.386-3.433c-7.729,0-14.922,1.857-21.581,5.566c-6.659,3.713-11.998,8.949-16.014,15.71
			c-4.018,6.762-6.023,14.563-6.023,23.41c0,8.846,2.006,16.649,6.023,23.41c4.016,6.764,9.38,11.998,16.09,15.709
			c6.711,3.713,13.879,5.566,21.505,5.566c7.32,0,13.444-1.144,18.378-3.431c4.93-2.288,9.174-5.312,12.734-9.075
			c2.643-2.845,4.777-6.277,6.405-10.294c1.625-4.016,2.644-8.465,3.05-13.345h-40.415v-12.049h52.465
			c0.507,2.848,0.762,5.49,0.762,7.93c0,6.711-1.067,13.246-3.202,19.599c-2.136,6.355-5.544,11.922-10.219,16.7
			c-10.066,10.88-23.438,16.318-40.11,16.318C897.728,171.702,888.271,169.212,879.631,164.229z"/>
		<path fill="#5F6368" d="M991.421,166.364c-5.896-3.558-10.498-8.465-13.802-14.718c-3.306-6.253-4.957-13.292-4.957-21.122
			c0-7.524,1.55-14.437,4.652-20.742c3.1-6.303,7.497-11.336,13.192-15.099c5.692-3.761,12.301-5.643,19.827-5.643
			c7.624,0,14.232,1.704,19.825,5.108c5.591,3.408,9.888,8.11,12.888,14.107c2.998,6.001,4.5,12.864,4.5,20.59
			c0,1.525-0.153,2.848-0.458,3.965h-61.463c0.305,5.898,1.728,10.881,4.271,14.946c2.54,4.068,5.77,7.119,9.685,9.15
			c3.913,2.036,8.007,3.051,12.277,3.051c9.963,0,17.639-4.676,23.029-14.031l10.98,5.338c-3.355,6.306-7.907,11.285-13.649,14.946
			c-5.746,3.66-12.686,5.49-20.818,5.49C1003.978,171.702,997.317,169.923,991.421,166.364z M1033.82,122.136
			c-0.205-3.253-1.121-6.506-2.746-9.761c-1.627-3.252-4.193-5.998-7.702-8.235c-3.507-2.235-7.906-3.355-13.192-3.355
			c-6.099,0-11.261,1.958-15.479,5.871c-4.22,3.915-6.992,9.075-8.312,15.48H1033.82z"/>
		<path fill="#5F6368" d="M1076.521,166.212c-6.101-3.661-10.854-8.641-14.26-14.946c-3.408-6.303-5.109-13.269-5.109-20.894
			c0-7.626,1.701-14.59,5.109-20.895c3.405-6.303,8.159-11.286,14.26-14.946s12.964-5.49,20.589-5.49s14.488,1.83,20.589,5.49
			s10.853,8.644,14.26,14.946c3.406,6.305,5.109,13.269,5.109,20.895c0,7.625-1.703,14.591-5.109,20.894
			c-3.407,6.306-8.159,11.285-14.26,14.946c-6.101,3.66-12.964,5.49-20.589,5.49S1082.622,169.872,1076.521,166.212z
			 M1110.455,156.374c4.118-2.388,7.42-5.818,9.913-10.294c2.491-4.474,3.736-9.708,3.736-15.708c0-5.999-1.245-11.233-3.736-15.709
			c-2.493-4.473-5.795-7.904-9.913-10.295c-4.118-2.388-8.566-3.584-13.345-3.584c-4.78,0-9.253,1.196-13.421,3.584
			c-4.17,2.391-7.499,5.822-9.99,10.295c-2.492,4.476-3.735,9.71-3.735,15.709c0,6,1.243,11.234,3.735,15.708
			c2.491,4.476,5.82,7.906,9.99,10.294c4.168,2.392,8.641,3.585,13.421,3.585C1101.889,159.959,1106.337,158.766,1110.455,156.374z"
			/>
		<path fill="#5F6368" d="M1150.793,91.481h12.354v12.506h0.61c1.524-4.271,4.473-7.802,8.845-10.601
			c4.371-2.794,8.946-4.193,13.727-4.193c3.559,0,6.608,0.511,9.151,1.525v14.031c-3.255-1.626-6.916-2.44-10.981-2.44
			c-3.763,0-7.221,1.067-10.371,3.203c-3.152,2.135-5.669,5.008-7.549,8.616c-1.883,3.61-2.821,7.5-2.821,11.667v43.466h-12.964
			V91.481z"/>
		<path fill="#5F6368" d="M1218.127,198.239c-5.947-4.271-9.939-9.406-11.972-15.404l11.743-5.032
			c1.728,4.474,4.6,8.106,8.617,10.904c4.015,2.796,8.769,4.194,14.259,4.194c8.032,0,14.261-2.341,18.683-7.016
			c4.424-4.678,6.635-11.285,6.635-19.826v-8.693h-0.609c-2.543,3.966-6.127,7.194-10.753,9.685
			c-4.628,2.489-9.889,3.736-15.784,3.736c-6.711,0-12.838-1.728-18.379-5.186c-5.542-3.455-9.938-8.285-13.191-14.488
			c-3.255-6.2-4.881-13.269-4.881-21.199c0-7.828,1.626-14.87,4.881-21.123c3.254-6.253,7.649-11.106,13.191-14.565
			c5.541-3.455,11.668-5.185,18.379-5.185c5.896,0,11.156,1.246,15.784,3.735c4.626,2.494,8.21,5.772,10.753,9.838h0.609V91.481
			h12.354v74.73c0,12.506-3.458,22.037-10.37,28.596c-6.915,6.558-16.014,9.838-27.301,9.838
			C1231.625,204.646,1224.075,202.51,1218.127,198.239z M1253.51,155.535c3.813-2.337,6.863-5.692,9.151-10.065
			c2.286-4.37,3.431-9.556,3.431-15.556c0-6.101-1.145-11.336-3.431-15.709c-2.288-4.37-5.338-7.702-9.151-9.989
			c-3.812-2.288-8.06-3.432-12.735-3.432c-4.678,0-8.947,1.17-12.81,3.508c-3.865,2.34-6.939,5.695-9.228,10.065
			c-2.288,4.373-3.431,9.559-3.431,15.557c0,6,1.143,11.21,3.431,15.632c2.288,4.423,5.362,7.778,9.228,10.065
			c3.862,2.288,8.132,3.433,12.81,3.433C1245.45,159.044,1249.697,157.876,1253.51,155.535z"/>
		<path fill="#5F6368" d="M1310.929,166.364c-5.897-3.558-10.499-8.465-13.803-14.718c-3.305-6.253-4.956-13.292-4.956-21.122
			c0-7.524,1.549-14.437,4.651-20.742c3.101-6.303,7.497-11.336,13.192-15.099c5.692-3.761,12.302-5.643,19.827-5.643
			c7.625,0,14.233,1.704,19.826,5.108c5.59,3.408,9.888,8.11,12.888,14.107c2.998,6.001,4.499,12.864,4.499,20.59
			c0,1.525-0.153,2.848-0.458,3.965h-61.462c0.305,5.898,1.728,10.881,4.27,14.946c2.54,4.068,5.771,7.119,9.686,9.15
			c3.913,2.036,8.006,3.051,12.277,3.051c9.962,0,17.638-4.676,23.028-14.031l10.98,5.338c-3.354,6.306-7.906,11.285-13.648,14.946
			c-5.746,3.66-12.686,5.49-20.818,5.49C1323.484,171.702,1316.824,169.923,1310.929,166.364z M1353.327,122.136
			c-0.204-3.253-1.12-6.506-2.745-9.761c-1.628-3.252-4.194-5.998-7.702-8.235c-3.507-2.235-7.906-3.355-13.192-3.355
			c-6.1,0-11.262,1.958-15.48,5.871c-4.22,3.915-6.991,9.075-8.311,15.48H1353.327z"/>
		<path fill="#5F6368" d="M1439.799,72.418h-30.655V60.063h74.121v12.354h-30.503v96.844h-12.963V72.418z"/>
		<path fill="#5F6368" d="M1510.866,166.212c-6.101-3.661-10.854-8.641-14.259-14.946c-3.408-6.303-5.109-13.269-5.109-20.894
			c0-7.626,1.701-14.59,5.109-20.895c3.404-6.303,8.158-11.286,14.259-14.946s12.964-5.49,20.59-5.49
			c7.625,0,14.488,1.83,20.589,5.49s10.853,8.644,14.26,14.946c3.405,6.305,5.109,13.269,5.109,20.895
			c0,7.625-1.704,14.591-5.109,20.894c-3.407,6.306-8.159,11.285-14.26,14.946c-6.101,3.66-12.964,5.49-20.589,5.49
			C1523.83,171.702,1516.967,169.872,1510.866,166.212z M1544.801,156.374c4.117-2.388,7.42-5.818,9.912-10.294
			c2.491-4.474,3.737-9.708,3.737-15.708c0-5.999-1.246-11.233-3.737-15.709c-2.492-4.473-5.795-7.904-9.912-10.295
			c-4.118-2.388-8.566-3.584-13.345-3.584c-4.781,0-9.253,1.196-13.422,3.584c-4.17,2.391-7.498,5.822-9.989,10.295
			c-2.492,4.476-3.736,9.71-3.736,15.709c0,6,1.244,11.234,3.736,15.708c2.491,4.476,5.819,7.906,9.989,10.294
			c4.169,2.392,8.641,3.585,13.422,3.585C1536.234,159.959,1540.683,158.766,1544.801,156.374z"/>
		<path fill="#5F6368" d="M1576.599,91.481h13.269l18.606,61.462h0.153l19.521-61.462h13.421l19.673,61.31h0.154l18.453-61.31
			h13.115l-25.164,77.78h-13.115l-20.132-62.072l-19.979,62.072h-12.963L1576.599,91.481z"/>
		<path fill="#5F6368" d="M1702.267,91.481h12.354v11.438h0.61c2.135-3.863,5.54-7.143,10.218-9.838
			c4.676-2.693,9.659-4.041,14.946-4.041c9.353,0,16.495,2.721,21.428,8.159c4.93,5.44,7.397,12.838,7.397,22.19v49.871h-12.964
			v-47.889c0-7.218-1.729-12.454-5.186-15.709c-3.457-3.252-8.186-4.88-14.184-4.88c-4.17,0-7.906,1.17-11.209,3.508
			c-3.306,2.34-5.872,5.414-7.702,9.227c-1.831,3.813-2.745,7.805-2.745,11.973v43.771h-12.964V91.481z"/>
	</g>
</g>
</svg>
