<?xml version="1.0" encoding="utf-8"?>
<!-- Generator: Adobe Illustrator 15.1.0, SVG Export Plug-In . SVG Version: 6.00 Build 0)  -->
<!DOCTYPE svg PUBLIC "-//W3C//DTD SVG 1.1//EN" "http://www.w3.org/Graphics/SVG/1.1/DTD/svg11.dtd">
<svg version="1.1" xmlns="http://www.w3.org/2000/svg" xmlns:xlink="http://www.w3.org/1999/xlink" x="0px" y="0px"
	 width="553.901px" height="472.404px" viewBox="-15.401 -53.904 553.901 472.404"
	 enable-background="new -15.401 -53.904 553.901 472.404" xml:space="preserve">
<g id="Layer_1" display="none">
	<g display="inline">
		<path fill="#EA4535" d="M33.378,32.596c0,14.201-11.111,24.677-24.753,24.677c-13.643,0-24.753-10.477-24.753-24.677
			c0-14.309,11.11-24.684,24.753-24.684C22.267,7.912,33.378,18.287,33.378,32.596z M22.547,32.596
			c0-8.871-6.44-14.954-13.92-14.954c-7.484,0-13.919,6.08-13.919,14.954c0,8.793,6.435,14.949,13.919,14.949
			C16.104,47.545,22.547,41.371,22.547,32.596z"/>
		<path fill="#F6B917" d="M86.781,32.596c0,14.201-11.121,24.677-24.753,24.677c-13.642,0-24.753-10.477-24.753-24.677
			c0-14.299,11.111-24.684,24.753-24.684C75.66,7.912,86.781,18.287,86.781,32.596z M75.941,32.596
			c0-8.871-6.441-14.954-13.913-14.954c-7.478,0-13.919,6.08-13.919,14.954c0,8.793,6.441,14.949,13.919,14.949
			C69.5,47.545,75.941,41.371,75.941,32.596z"/>
		<path fill="#547EBF" d="M137.959,9.408v44.303c0,18.227-10.749,25.666-23.457,25.666c-11.955,0-19.162-7.996-21.865-14.539
			l9.421-3.925c1.689,4.007,5.805,8.751,12.438,8.751c8.131,0,13.17-5.012,13.17-14.473V51.65h-0.371
			c-2.43,2.99-7.109,5.607-12.993,5.607c-12.346,0-23.646-10.749-23.646-24.584c0-13.924,11.301-24.77,23.646-24.77
			c5.873,0,10.552,2.618,12.993,5.521h0.371V9.414h10.29V9.408H137.959z M128.438,32.68c0-8.688-5.794-15.035-13.176-15.035
			c-7.478,0-13.739,6.348-13.739,15.035c0,8.607,6.262,14.865,13.739,14.865C122.644,47.545,128.438,41.287,128.438,32.68z"/>
		<path fill="#35A851" d="M154.925-16.548v72.304h-10.563v-72.304H154.925z"/>
		<path fill="#EA4535" d="M196.12,40.715l8.399,5.601c-2.705,4.022-9.256,10.948-20.552,10.948c-14.026,0-24.5-10.835-24.5-24.685
			c0-14.667,10.569-24.667,23.283-24.667c12.806,0,19.065,10.179,21.116,15.7l1.132,2.8L172.003,40.07
			c2.534,4.953,6.459,7.475,11.966,7.475C189.486,47.545,193.311,44.832,196.12,40.715L196.12,40.715z M170.218,31.842l22.052-9.149
			c-1.209-3.091-4.862-5.248-9.147-5.248C177.611,17.442,169.941,22.311,170.218,31.842z"/>
		<path fill="#547EBF" d="M-56.138,26.17V15.707h35.286c0.333,1.826,0.515,3.988,0.515,6.311c0,7.856-2.146,17.573-9.07,24.493
			c-6.723,7.017-15.325,10.753-26.714,10.753C-77.248,57.262-95,40.051-95,18.93c0-21.106,17.752-38.307,38.879-38.307
			c11.679,0,20.002,4.581,26.249,10.566l-7.386,7.383c-4.483-4.204-10.563-7.475-18.88-7.475c-15.419,0-27.479,12.419-27.479,27.832
			c0,15.428,12.062,27.855,27.479,27.855c10.006,0,15.697-4.02,19.342-7.663c2.96-2.956,4.908-7.185,5.687-12.974L-56.138,26.17z"/>
	</g>
</g>
<g id="Layer_2" display="none">
	<g display="inline">
		<g>
			<g>
				<g>
					<defs>
						<path id="SVGID_1_" d="M55.113,57.884l-2.305,5.733l-2.306-5.733h-2.831v9.489h2.02v-6.645l2.676,6.645h0.882l2.675-6.645
							v6.645h2.034v-9.489H55.113z M23.085,62.637c0-1.779,1.124-3.117,2.874-3.117c1.749,0,2.888,1.338,2.888,3.117
							c0,1.764-1.139,3.115-2.888,3.115C24.209,65.752,23.085,64.398,23.085,62.637 M21.008,62.637c0,2.858,2.092,4.907,4.951,4.907
							c2.873,0,4.965-2.049,4.965-4.907c0-2.861-2.092-4.908-4.965-4.908C23.1,57.729,21.008,59.773,21.008,62.637 M36.417,62.637
							c0-1.779,1.124-3.117,2.874-3.117c1.749,0,2.888,1.338,2.888,3.117c0,1.764-1.139,3.115-2.888,3.115
							C37.541,65.752,36.417,64.398,36.417,62.637 M34.34,62.637c0,2.858,2.091,4.907,4.951,4.907c2.874,0,4.965-2.049,4.965-4.907
							c0-2.861-2.091-4.908-4.965-4.908C36.431,57.729,34.34,59.773,34.34,62.637 M22.608,45.248v9.488h6.715V52.96h-4.694v-2.147
							h4.595v-1.777h-4.595v-2.008h4.694V45.25L22.608,45.248L22.608,45.248z M41.524,45.248v5.962l-4.396-5.962h-2.077v9.488h2.02
							v-6.188l4.524,6.188h1.948v-9.488H41.524z M50.994,47.025h2.119c0.812,0,1.423,0.483,1.423,1.281
							c0,0.795-0.611,1.279-1.423,1.279h-2.119V47.025z M48.974,45.248v9.488h2.021v-3.37h1.479l1.863,3.37h2.32l-2.135-3.612
							c1.024-0.242,2.077-1.14,2.077-2.815c0-1.766-1.209-3.061-3.187-3.061H48.974z M37.477,34.392h2.12
							c0.811,0,1.422,0.483,1.422,1.28s-0.611,1.28-1.422,1.28h-2.12V34.392z M35.457,32.611V42.1h2.02v-3.371h1.479L40.82,42.1
							h2.319l-2.134-3.61c1.023-0.243,2.076-1.14,2.076-2.817c0-1.765-1.209-3.061-3.187-3.061H35.457z M49.458,32.611V42.1h6.715
							v-1.775h-4.695v-2.148h4.596v-1.777h-4.596v-2.006h4.695v-1.779L49.458,32.611L49.458,32.611z M21.421,37.364
							c0,2.987,2.275,4.923,5.05,4.923c1.722,0,3.073-0.712,4.04-1.793v-3.643h-4.523v1.765h2.504v1.139
							c-0.385,0.354-1.181,0.726-2.021,0.726c-1.721,0-2.973-1.321-2.973-3.114c0-1.792,1.252-3.115,2.973-3.115
							c1.011,0,1.821,0.568,2.248,1.236l1.679-0.91c-0.711-1.123-1.949-2.119-3.927-2.119
							C23.696,32.456,21.421,34.361,21.421,37.364 M11.613,22.13h55.74v55.74h-55.74V22.13z M9,80.482h60.966V19.518H9V80.482z"/>
					</defs>
					<clipPath id="SVGID_2_">
						<use xlink:href="#SVGID_1_"  overflow="visible"/>
					</clipPath>
					
						<linearGradient id="SVGID_3_" gradientUnits="userSpaceOnUse" x1="-149.874" y1="389.2188" x2="-149.7279" y2="389.2188" gradientTransform="matrix(420 420 420 -420 -100516 226438.5)">
						<stop  offset="0" style="stop-color:#07E1FD"/>
						<stop  offset="0.2456" style="stop-color:#05D6DF"/>
						<stop  offset="0.5568" style="stop-color:#02CABF"/>
						<stop  offset="0.8194" style="stop-color:#01C3AC"/>
						<stop  offset="1" style="stop-color:#00C0A5"/>
					</linearGradient>
					<polygon clip-path="url(#SVGID_2_)" fill="url(#SVGID_3_)" points="39.483,-10.965 100.448,50 39.483,110.966 -21.482,50 					
						"/>
				</g>
			</g>
		</g>
		<g>
			<path fill="#00C0A5" d="M101.078,59.645c-0.897,1.285-2.148,2.246-3.754,2.883c-1.605,0.637-3.475,0.953-5.607,0.953
				c-2.157,0-4.072-0.506-5.744-1.518c-1.672-1.012-2.966-2.451-3.881-4.316c-0.915-1.867-1.385-4.028-1.408-6.488v-2.311
				c0-3.986,0.93-7.076,2.79-9.27c1.859-2.193,4.474-3.29,7.843-3.29c2.763,0,4.986,0.706,6.671,2.116
				c1.685,1.412,2.715,3.414,3.091,6.009h-3.49c-0.654-3.517-2.739-5.271-6.253-5.271c-2.339,0-4.111,0.82-5.316,2.465
				c-1.206,1.645-1.815,4.022-1.827,7.142v2.165c0,2.971,0.679,5.333,2.036,7.086c1.356,1.752,3.192,2.629,5.507,2.629
				c1.31,0,2.454-0.146,3.436-0.438s1.794-0.778,2.437-1.469v-5.931h-6.126v-2.854h9.598v9.707H101.078z"/>
			<path fill="#00C0A5" d="M116.675,52.41h-6.216v10.707h-3.509V36.65h8.762c2.98,0,5.274,0.68,6.88,2.035
				c1.605,1.357,2.408,3.334,2.408,5.926c0,1.647-0.445,3.084-1.336,4.31c-0.891,1.224-2.13,2.14-3.717,2.744l6.217,11.231v0.221
				h-3.745L116.675,52.41z M110.459,49.557h5.362c1.732,0,3.11-0.449,4.135-1.348c1.024-0.896,1.536-2.102,1.536-3.605
				c0-1.639-0.488-2.895-1.463-3.77c-0.977-0.874-2.385-1.316-4.227-1.329h-5.343V49.557L110.459,49.557z"/>
			<path fill="#00C0A5" d="M144.924,50.884h-11.47v9.38h13.323v2.854h-16.813V36.65h16.632v2.854h-13.142v8.523h11.47V50.884z"/>
			<path fill="#00C0A5" d="M166.156,50.884h-11.471v9.38h13.324v2.854h-16.814V36.65h16.633v2.854h-13.141v8.523h11.47
				L166.156,50.884L166.156,50.884z"/>
			<path fill="#00C0A5" d="M192.77,63.117h-3.508l-13.324-20.395v20.396h-3.508V36.65h3.508l13.359,20.484V36.65h3.473V63.117
				L192.77,63.117z"/>
			<path fill="#00C0A5" d="M218.038,52.41h-6.218v10.707h-3.508V36.65h8.762c2.98,0,5.273,0.68,6.881,2.035
				c1.605,1.356,2.408,3.332,2.408,5.926c0,1.647-0.445,3.084-1.336,4.31c-0.893,1.224-2.131,2.14-3.719,2.744l6.217,11.231v0.221
				h-3.743L218.038,52.41z M211.82,49.557h5.363c1.731,0,3.109-0.449,4.135-1.348c1.022-0.896,1.537-2.102,1.537-3.605
				c0-1.639-0.488-2.895-1.465-3.77c-0.977-0.874-2.385-1.316-4.227-1.329h-5.346v10.052H211.82z"/>
			<path fill="#00C0A5" d="M251.686,50.736c0,2.596-0.437,4.856-1.309,6.789c-0.873,1.935-2.107,3.408-3.708,4.428
				s-3.466,1.525-5.599,1.525c-2.086,0-3.934-0.512-5.545-1.535s-2.862-2.483-3.754-4.381c-0.892-1.896-1.349-4.094-1.371-6.59
				v-1.908c0-2.545,0.44-4.793,1.326-6.744c0.885-1.949,2.137-3.442,3.754-4.479c1.617-1.035,3.469-1.554,5.554-1.554
				c2.12,0,3.989,0.512,5.606,1.535c1.616,1.022,2.861,2.509,3.734,4.452c0.872,1.945,1.311,4.209,1.311,6.789V50.736
				L251.686,50.736z M248.214,49.027c0-3.137-0.631-5.547-1.891-7.225c-1.261-1.679-3.023-2.518-5.289-2.518
				c-2.206,0-3.942,0.839-5.208,2.518c-1.268,1.678-1.918,4.008-1.954,6.988v1.943c0,3.043,0.64,5.434,1.918,7.173
				c1.278,1.737,3.038,2.606,5.28,2.606c2.254,0,3.998-0.82,5.234-2.463c1.234-1.642,1.87-3.996,1.907-7.062L248.214,49.027
				L248.214,49.027z"/>
			<path fill="#00C0A5" d="M277.354,50.736c0,2.596-0.438,4.856-1.31,6.789c-0.872,1.935-2.108,3.408-3.708,4.428
				s-3.466,1.525-5.6,1.525c-2.084,0-3.932-0.512-5.543-1.535s-2.863-2.483-3.754-4.381c-0.893-1.896-1.35-4.094-1.373-6.59v-1.908
				c0-2.545,0.441-4.793,1.328-6.744c0.885-1.949,2.135-3.442,3.754-4.479c1.617-1.035,3.468-1.554,5.553-1.554
				c2.119,0,3.99,0.512,5.607,1.535c1.616,1.022,2.861,2.509,3.733,4.452c0.872,1.945,1.31,4.209,1.31,6.789v1.672H277.354z
				 M273.881,49.027c0-3.137-0.63-5.547-1.891-7.225c-1.26-1.679-3.023-2.518-5.289-2.518c-2.206,0-3.941,0.839-5.208,2.518
				c-1.267,1.678-1.917,4.008-1.954,6.988v1.943c0,3.043,0.641,5.434,1.918,7.173c1.277,1.737,3.038,2.606,5.279,2.606
				c2.255,0,4-0.82,5.236-2.463c1.233-1.642,1.87-3.996,1.906-7.062L273.881,49.027L273.881,49.027z"/>
			<path fill="#00C0A5" d="M287.17,36.65l8.652,21.595l8.652-21.595H309v26.467h-3.488V52.811l0.326-11.123l-8.688,21.432h-2.672
				l-8.672-21.376l0.346,11.067v10.309h-3.489V36.65H287.17z"/>
		</g>
	</g>
</g>
<g id="Layer_3">
	<g>
		
			<linearGradient id="SVGID_4_" gradientUnits="userSpaceOnUse" x1="386.9287" y1="-212.7461" x2="613.2064" y2="-364.2896" gradientTransform="matrix(1 0 0 -1 -343 -190)">
			<stop  offset="0" style="stop-color:#AA4A9B"/>
			<stop  offset="1" style="stop-color:#F05922"/>
		</linearGradient>
		<path fill="url(#SVGID_4_)" d="M287.716,184.5L88.243,10.836C82.187,5.1,73.904,1.277,64.982,0.958
			C45.226,0.32,29.293,15.616,28.658,35.054c-0.32,13.701,7.325,25.809,18.478,31.865l224.331,139.25
			c0.317,0.317,0.638,0.317,0.958,0.635c6.69,3.508,14.656,1.275,18.478-5.098C294.41,195.972,292.816,188.642,287.716,184.5z"/>
		<g>
			
				<linearGradient id="SVGID_5_" gradientUnits="userSpaceOnUse" x1="461.9609" y1="-572.1582" x2="816.428" y2="-382.8797" gradientTransform="matrix(1 0 0 -1 -343 -190)">
				<stop  offset="0" style="stop-color:#FFE42E"/>
				<stop  offset="1" style="stop-color:#ED417C"/>
			</linearGradient>
			<path fill="url(#SVGID_5_)" d="M483.369,212.223c-0.956-27.403-24.217-48.753-51.62-47.479
				c-8.606,0.319-16.89,2.867-23.898,7.011L127.439,331.397c0,0-0.32,0-0.32,0.317c-9.56,3.825-15.933,13.385-15.612,24.22
				c0.634,14.019,12.105,24.854,26.126,24.216c3.187,0,6.373-0.955,9.242-2.23l305.586-117.9c0,0,0.317,0,0.635-0.317
				C471.261,252.053,484.006,233.572,483.369,212.223z"/>
		</g>
		
			<linearGradient id="SVGID_6_" gradientUnits="userSpaceOnUse" x1="472.9541" y1="-555.6357" x2="601.4336" y2="-367.5051" gradientTransform="matrix(1 0 0 -1 -343 -190)">
			<stop  offset="0" style="stop-color:#FFE42E"/>
			<stop  offset="1" style="stop-color:#F05922"/>
		</linearGradient>
		<path fill="url(#SVGID_6_)" d="M257.445,204.894c3.506-6.69,0.958-14.977-5.732-18.163c-6.056-3.187-13.387-1.275-17.208,4.143
			L116.287,340.957c0,0,0,0.317-0.32,0.639c-5.736,8.601-5.736,20.074,0.955,28.678c8.284,11.153,23.898,13.381,35.052,5.415
			c3.187-2.549,5.737-5.735,7.648-8.921l97.188-159.964C256.81,205.85,257.127,205.211,257.445,204.894z"/>
		<g>
			<rect x="173.644" y="114.717" width="162.512" height="162.512"/>
			<rect x="187.663" y="246.636" fill="#FFFFFF" width="60.863" height="10.196"/>
			<g>
				<path fill="#FFFFFF" d="M187.024,157.416l4.779-4.462c1.276,1.593,2.552,2.549,4.145,2.549c1.911,0,2.867-1.274,2.867-3.824
					v-16.888h7.328v16.888c0,3.186-0.955,5.737-2.549,7.33c-1.593,1.593-4.142,2.548-7.328,2.548
					C191.804,161.876,188.936,159.964,187.024,157.416z"/>
				<path fill="#FFFFFF" d="M208.054,134.791h21.354v6.373h-14.021v4.142h12.746v5.736h-12.746v4.142h14.021v6.373h-21.354V134.791z
					"/>
				<path fill="#FFFFFF" d="M238.967,141.482h-7.966v-6.373h23.258v6.373h-7.967v20.074h-7.325V141.482z"/>
				<path fill="#FFFFFF" d="M187.663,167.61h13.7c3.187,0,5.739,0.958,7.332,2.232c0.952,0.954,1.594,2.547,1.594,4.46l0,0
					c0,3.187-1.594,4.779-4.146,6.054c3.186,0.958,5.418,2.87,5.418,6.374l0,0c0,4.462-3.825,7.328-9.881,7.328h-13.698V167.61
					H187.663z M202.957,175.896c0-1.594-1.276-2.229-3.187-2.229h-4.78v4.779h4.463
					C201.681,178.127,202.957,177.489,202.957,175.896L202.957,175.896z M200.408,183.227h-5.735v4.779h5.735
					c2.23,0,3.508-0.957,3.508-2.551l0,0C203.916,184.181,202.957,183.227,200.408,183.227z"/>
				<path fill="#FFFFFF" d="M212.516,167.61h12.43c4.142,0,7.007,0.958,8.601,2.87c1.593,1.593,2.234,3.503,2.234,6.054l0,0
					c0,4.142-2.234,6.692-5.421,8.285l6.373,9.239h-8.283l-5.415-7.965h-3.187v7.965h-7.332V167.61z M224.628,180.356
					c2.545,0,3.821-1.274,3.821-3.187l0,0c0-2.229-1.594-3.187-3.821-3.187h-4.78v6.373H224.628z"/>
				<path fill="#FFFFFF" d="M244.699,167.293h7.014l11.152,26.766h-7.966l-1.914-4.778h-10.197l-1.91,4.778h-7.649L244.699,167.293z
					 M251.072,183.544l-2.867-7.329l-2.865,7.647h5.732V183.544z"/>
				<path fill="#FFFFFF" d="M263.817,167.61h7.332v26.448h-7.332V167.61z"/>
				<path fill="#FFFFFF" d="M273.06,167.61h7.012l10.831,14.023V167.61h7.332v26.448h-6.373l-11.471-14.338v14.658h-7.331V167.61z"
					/>
				<path fill="#FFFFFF" d="M298.552,190.234l4.146-4.779c2.545,2.232,5.414,3.187,8.601,3.187c1.91,0,3.187-0.636,3.187-1.911l0,0
					c0-1.275-0.956-1.594-4.463-2.55c-5.731-1.273-9.877-2.866-9.877-8.284l0,0c0-4.78,3.825-8.604,10.198-8.604
					c4.458,0,7.966,1.275,10.831,3.504l-3.82,5.1c-2.553-1.594-5.097-2.549-7.332-2.549c-1.91,0-2.545,0.636-2.545,1.594l0,0
					c0,1.273,0.952,1.593,4.459,2.548c6.052,1.273,9.88,3.187,9.88,8.285l0,0c0,5.418-4.145,8.604-10.835,8.604
					C306.201,194.696,301.738,193.104,298.552,190.234z"/>
			</g>
		</g>
	</g>
</g>
</svg>
