<?xml version="1.0" encoding="utf-8"?>
<!-- Generator: Adobe Illustrator 15.1.0, SVG Export Plug-In . SVG Version: 6.00 Build 0)  -->
<!DOCTYPE svg PUBLIC "-//W3C//DTD SVG 1.1//EN" "http://www.w3.org/Graphics/SVG/1.1/DTD/svg11.dtd">
<svg version="1.1" xmlns="http://www.w3.org/2000/svg" xmlns:xlink="http://www.w3.org/1999/xlink" x="0px" y="0px"
	 width="1442.848px" height="283.242px" viewBox="-15.401 -53.904 1442.848 283.242"
	 enable-background="new -15.401 -53.904 1442.848 283.242" xml:space="preserve">
<g id="Layer_1" display="none">
	<g display="inline">
		<path fill="#EA4535" d="M33.378,32.596c0,14.201-11.111,24.677-24.753,24.677c-13.643,0-24.753-10.477-24.753-24.677
			c0-14.309,11.11-24.684,24.753-24.684C22.267,7.912,33.378,18.287,33.378,32.596z M22.547,32.596
			c0-8.871-6.44-14.954-13.92-14.954c-7.484,0-13.919,6.08-13.919,14.954c0,8.793,6.435,14.949,13.919,14.949
			C16.104,47.545,22.547,41.371,22.547,32.596z"/>
		<path fill="#F6B917" d="M86.781,32.596c0,14.201-11.121,24.677-24.753,24.677c-13.642,0-24.753-10.477-24.753-24.677
			c0-14.299,11.111-24.684,24.753-24.684C75.66,7.912,86.781,18.287,86.781,32.596z M75.941,32.596
			c0-8.871-6.441-14.954-13.913-14.954c-7.478,0-13.919,6.08-13.919,14.954c0,8.793,6.441,14.949,13.919,14.949
			C69.5,47.545,75.941,41.371,75.941,32.596z"/>
		<path fill="#547EBF" d="M137.959,9.408v44.303c0,18.227-10.749,25.666-23.457,25.666c-11.955,0-19.162-7.996-21.865-14.539
			l9.421-3.925c1.689,4.007,5.805,8.751,12.438,8.751c8.131,0,13.17-5.012,13.17-14.473V51.65h-0.371
			c-2.43,2.99-7.109,5.607-12.993,5.607c-12.346,0-23.646-10.749-23.646-24.584c0-13.924,11.301-24.77,23.646-24.77
			c5.873,0,10.552,2.618,12.993,5.521h0.371V9.414h10.29V9.408H137.959z M128.438,32.68c0-8.688-5.794-15.035-13.176-15.035
			c-7.478,0-13.739,6.348-13.739,15.035c0,8.607,6.262,14.865,13.739,14.865C122.644,47.545,128.438,41.287,128.438,32.68z"/>
		<path fill="#35A851" d="M154.925-16.548v72.304h-10.563v-72.304H154.925z"/>
		<path fill="#EA4535" d="M196.12,40.715l8.399,5.601c-2.705,4.022-9.256,10.948-20.552,10.948c-14.026,0-24.5-10.835-24.5-24.685
			c0-14.667,10.569-24.667,23.283-24.667c12.806,0,19.065,10.179,21.116,15.7l1.132,2.8L172.003,40.07
			c2.534,4.953,6.459,7.475,11.966,7.475C189.486,47.545,193.311,44.832,196.12,40.715L196.12,40.715z M170.218,31.842l22.052-9.149
			c-1.209-3.091-4.862-5.248-9.147-5.248C177.611,17.442,169.941,22.311,170.218,31.842z"/>
		<path fill="#547EBF" d="M-56.138,26.17V15.707h35.286c0.333,1.826,0.515,3.988,0.515,6.311c0,7.856-2.146,17.573-9.07,24.493
			c-6.723,7.017-15.325,10.753-26.714,10.753C-77.248,57.262-95,40.051-95,18.93c0-21.106,17.752-38.307,38.879-38.307
			c11.679,0,20.002,4.581,26.249,10.566l-7.386,7.383c-4.483-4.204-10.563-7.475-18.88-7.475c-15.419,0-27.479,12.419-27.479,27.832
			c0,15.428,12.062,27.855,27.479,27.855c10.006,0,15.697-4.02,19.342-7.663c2.96-2.956,4.908-7.185,5.687-12.974L-56.138,26.17z"/>
	</g>
</g>
<g id="Layer_2" display="none">
	<g display="inline">
		<g>
			<g>
				<g>
					<defs>
						<path id="SVGID_1_" d="M55.113,57.884l-2.305,5.733l-2.306-5.733h-2.831v9.489h2.02v-6.645l2.676,6.645h0.882l2.675-6.645
							v6.645h2.034v-9.489H55.113z M23.085,62.637c0-1.779,1.124-3.117,2.874-3.117c1.749,0,2.888,1.338,2.888,3.117
							c0,1.764-1.139,3.115-2.888,3.115C24.209,65.752,23.085,64.398,23.085,62.637 M21.008,62.637c0,2.858,2.092,4.907,4.951,4.907
							c2.873,0,4.965-2.049,4.965-4.907c0-2.861-2.092-4.908-4.965-4.908C23.1,57.729,21.008,59.773,21.008,62.637 M36.417,62.637
							c0-1.779,1.124-3.117,2.874-3.117c1.749,0,2.888,1.338,2.888,3.117c0,1.764-1.139,3.115-2.888,3.115
							C37.541,65.752,36.417,64.398,36.417,62.637 M34.34,62.637c0,2.858,2.091,4.907,4.951,4.907c2.874,0,4.965-2.049,4.965-4.907
							c0-2.861-2.091-4.908-4.965-4.908C36.431,57.729,34.34,59.773,34.34,62.637 M22.608,45.248v9.488h6.715V52.96h-4.694v-2.147
							h4.595v-1.777h-4.595v-2.008h4.694V45.25L22.608,45.248L22.608,45.248z M41.524,45.248v5.962l-4.396-5.962h-2.077v9.488h2.02
							v-6.188l4.524,6.188h1.948v-9.488H41.524z M50.994,47.025h2.119c0.812,0,1.423,0.483,1.423,1.281
							c0,0.795-0.611,1.279-1.423,1.279h-2.119V47.025z M48.974,45.248v9.488h2.021v-3.37h1.479l1.863,3.37h2.32l-2.135-3.612
							c1.024-0.242,2.077-1.14,2.077-2.815c0-1.766-1.209-3.061-3.187-3.061H48.974z M37.477,34.392h2.12
							c0.811,0,1.422,0.483,1.422,1.28s-0.611,1.28-1.422,1.28h-2.12V34.392z M35.457,32.611V42.1h2.02v-3.371h1.479L40.82,42.1
							h2.319l-2.134-3.61c1.023-0.243,2.076-1.14,2.076-2.817c0-1.765-1.209-3.061-3.187-3.061H35.457z M49.458,32.611V42.1h6.715
							v-1.775h-4.695v-2.148h4.596v-1.777h-4.596v-2.006h4.695v-1.779L49.458,32.611L49.458,32.611z M21.421,37.364
							c0,2.987,2.275,4.923,5.05,4.923c1.722,0,3.073-0.712,4.04-1.793v-3.643h-4.523v1.765h2.504v1.139
							c-0.385,0.354-1.181,0.726-2.021,0.726c-1.721,0-2.973-1.321-2.973-3.114c0-1.792,1.252-3.115,2.973-3.115
							c1.011,0,1.821,0.568,2.248,1.236l1.679-0.91c-0.711-1.123-1.949-2.119-3.927-2.119
							C23.696,32.456,21.421,34.361,21.421,37.364 M11.613,22.13h55.74v55.74h-55.74V22.13z M9,80.482h60.966V19.518H9V80.482z"/>
					</defs>
					<clipPath id="SVGID_2_">
						<use xlink:href="#SVGID_1_"  overflow="visible"/>
					</clipPath>
					
						<linearGradient id="SVGID_3_" gradientUnits="userSpaceOnUse" x1="-149.874" y1="389.2188" x2="-149.7279" y2="389.2188" gradientTransform="matrix(420 420 420 -420 -100516 226438.5)">
						<stop  offset="0" style="stop-color:#07E1FD"/>
						<stop  offset="0.2456" style="stop-color:#05D6DF"/>
						<stop  offset="0.5568" style="stop-color:#02CABF"/>
						<stop  offset="0.8194" style="stop-color:#01C3AC"/>
						<stop  offset="1" style="stop-color:#00C0A5"/>
					</linearGradient>
					<polygon clip-path="url(#SVGID_2_)" fill="url(#SVGID_3_)" points="39.483,-10.965 100.448,50 39.483,110.966 -21.482,50 					
						"/>
				</g>
			</g>
		</g>
		<g>
			<path fill="#00C0A5" d="M101.078,59.645c-0.897,1.285-2.148,2.246-3.754,2.883c-1.605,0.637-3.475,0.953-5.607,0.953
				c-2.157,0-4.072-0.506-5.744-1.518c-1.672-1.012-2.966-2.451-3.881-4.316c-0.915-1.867-1.385-4.028-1.408-6.488v-2.311
				c0-3.986,0.93-7.076,2.79-9.27c1.859-2.193,4.474-3.29,7.843-3.29c2.763,0,4.986,0.706,6.671,2.116
				c1.685,1.412,2.715,3.414,3.091,6.009h-3.49c-0.654-3.517-2.739-5.271-6.253-5.271c-2.339,0-4.111,0.82-5.316,2.465
				c-1.206,1.645-1.815,4.022-1.827,7.142v2.165c0,2.971,0.679,5.333,2.036,7.086c1.356,1.752,3.192,2.629,5.507,2.629
				c1.31,0,2.454-0.146,3.436-0.438s1.794-0.778,2.437-1.469v-5.931h-6.126v-2.854h9.598v9.707H101.078z"/>
			<path fill="#00C0A5" d="M116.675,52.41h-6.216v10.707h-3.509V36.65h8.762c2.98,0,5.274,0.68,6.88,2.035
				c1.605,1.357,2.408,3.334,2.408,5.926c0,1.647-0.445,3.084-1.336,4.31c-0.891,1.224-2.13,2.14-3.717,2.744l6.217,11.231v0.221
				h-3.745L116.675,52.41z M110.459,49.557h5.362c1.732,0,3.11-0.449,4.135-1.348c1.024-0.896,1.536-2.102,1.536-3.605
				c0-1.639-0.488-2.895-1.463-3.77c-0.977-0.874-2.385-1.316-4.227-1.329h-5.343V49.557L110.459,49.557z"/>
			<path fill="#00C0A5" d="M144.924,50.884h-11.47v9.38h13.323v2.854h-16.813V36.65h16.632v2.854h-13.142v8.523h11.47V50.884z"/>
			<path fill="#00C0A5" d="M166.156,50.884h-11.471v9.38h13.324v2.854h-16.814V36.65h16.633v2.854h-13.141v8.523h11.47
				L166.156,50.884L166.156,50.884z"/>
			<path fill="#00C0A5" d="M192.77,63.117h-3.508l-13.324-20.395v20.396h-3.508V36.65h3.508l13.359,20.484V36.65h3.473V63.117
				L192.77,63.117z"/>
			<path fill="#00C0A5" d="M218.038,52.41h-6.218v10.707h-3.508V36.65h8.762c2.98,0,5.273,0.68,6.881,2.035
				c1.605,1.356,2.408,3.332,2.408,5.926c0,1.647-0.445,3.084-1.336,4.31c-0.893,1.224-2.131,2.14-3.719,2.744l6.217,11.231v0.221
				h-3.743L218.038,52.41z M211.82,49.557h5.363c1.731,0,3.109-0.449,4.135-1.348c1.022-0.896,1.537-2.102,1.537-3.605
				c0-1.639-0.488-2.895-1.465-3.77c-0.977-0.874-2.385-1.316-4.227-1.329h-5.346v10.052H211.82z"/>
			<path fill="#00C0A5" d="M251.686,50.736c0,2.596-0.437,4.856-1.309,6.789c-0.873,1.935-2.107,3.408-3.708,4.428
				s-3.466,1.525-5.599,1.525c-2.086,0-3.934-0.512-5.545-1.535s-2.862-2.483-3.754-4.381c-0.892-1.896-1.349-4.094-1.371-6.59
				v-1.908c0-2.545,0.44-4.793,1.326-6.744c0.885-1.949,2.137-3.442,3.754-4.479c1.617-1.035,3.469-1.554,5.554-1.554
				c2.12,0,3.989,0.512,5.606,1.535c1.616,1.022,2.861,2.509,3.734,4.452c0.872,1.945,1.311,4.209,1.311,6.789V50.736
				L251.686,50.736z M248.214,49.027c0-3.137-0.631-5.547-1.891-7.225c-1.261-1.679-3.023-2.518-5.289-2.518
				c-2.206,0-3.942,0.839-5.208,2.518c-1.268,1.678-1.918,4.008-1.954,6.988v1.943c0,3.043,0.64,5.434,1.918,7.173
				c1.278,1.737,3.038,2.606,5.28,2.606c2.254,0,3.998-0.82,5.234-2.463c1.234-1.642,1.87-3.996,1.907-7.062L248.214,49.027
				L248.214,49.027z"/>
			<path fill="#00C0A5" d="M277.354,50.736c0,2.596-0.438,4.856-1.31,6.789c-0.872,1.935-2.108,3.408-3.708,4.428
				s-3.466,1.525-5.6,1.525c-2.084,0-3.932-0.512-5.543-1.535s-2.863-2.483-3.754-4.381c-0.893-1.896-1.35-4.094-1.373-6.59v-1.908
				c0-2.545,0.441-4.793,1.328-6.744c0.885-1.949,2.135-3.442,3.754-4.479c1.617-1.035,3.468-1.554,5.553-1.554
				c2.119,0,3.99,0.512,5.607,1.535c1.616,1.022,2.861,2.509,3.733,4.452c0.872,1.945,1.31,4.209,1.31,6.789v1.672H277.354z
				 M273.881,49.027c0-3.137-0.63-5.547-1.891-7.225c-1.26-1.679-3.023-2.518-5.289-2.518c-2.206,0-3.941,0.839-5.208,2.518
				c-1.267,1.678-1.917,4.008-1.954,6.988v1.943c0,3.043,0.641,5.434,1.918,7.173c1.277,1.737,3.038,2.606,5.279,2.606
				c2.255,0,4-0.82,5.236-2.463c1.233-1.642,1.87-3.996,1.906-7.062L273.881,49.027L273.881,49.027z"/>
			<path fill="#00C0A5" d="M287.17,36.65l8.652,21.595l8.652-21.595H309v26.467h-3.488V52.811l0.326-11.123l-8.688,21.432h-2.672
				l-8.672-21.376l0.346,11.067v10.309h-3.489V36.65H287.17z"/>
		</g>
	</g>
</g>
<g id="Layer_3">
	<rect x="56.084" y="39.482" fill="#4285F4" width="32.802" height="106.519"/>
	<rect x="154.23" y="39.482" fill="#00BFA5" width="33.005" height="106.519"/>
	<polygon fill="#1CE9B6" points="154.431,146.001 187.235,146.001 138.164,55.608 105.342,55.608 	"/>
	<polygon fill="#4FC3F7" points="88.886,146.001 56.084,146.001 105.144,55.608 137.96,55.608 	"/>
	<path fill="#4285F4" d="M36.784,162.218V23.725H72.65V2.71H24.026c-4.584,0-8.285,3.72-8.285,8.297v162.629
		c0,4.58,3.701,9.182,8.285,9.182H72.65v-20.601H36.784z"/>
	<path fill="#00BFA5" d="M206.537,162.218V23.725h-35.92V2.71h48.619c4.573,0,8.284,3.72,8.284,8.297v162.629
		c0,4.58-3.711,9.182-8.284,9.182h-48.619v-20.601H206.537z"/>
	<polygon fill="#666666" points="325.063,119.243 327.693,132.609 328.073,132.677 331.347,119.243 349.88,56.554 356.662,56.554 
		375.126,119.243 378.327,132.74 378.708,132.677 381.538,119.243 397.3,56.554 404.654,56.554 382.164,143.982 375.384,143.982 
		355.709,76.9 353.458,67.729 353.085,67.729 350.885,76.9 331.073,143.982 324.212,143.982 301.758,56.554 309.179,56.554 	"/>
	<path fill="#666666" d="M412.066,110.508c0-9.569,2.611-17.404,7.901-23.49c5.243-6.16,12.197-9.232,20.803-9.232
		c8.706,0,15.691,3.072,20.916,9.232c5.235,6.086,7.853,13.921,7.853,23.49v2.009c0,9.607-2.598,17.45-7.819,23.587
		c-5.222,6.066-12.152,9.145-20.831,9.145c-8.676,0-15.678-3.078-20.921-9.145c-5.29-6.137-7.901-13.979-7.901-23.587V110.508z
		 M419.291,112.494c0,7.48,1.928,13.834,5.713,18.935c3.792,5.108,9.088,7.656,15.885,7.656c6.68,0,11.941-2.548,15.801-7.656
		c3.814-5.101,5.71-11.454,5.71-18.935v-2.017c0-7.362-1.896-13.685-5.739-18.828c-3.86-5.139-9.177-7.709-15.89-7.709
		c-6.71,0-11.975,2.57-15.767,7.709c-3.785,5.144-5.713,11.466-5.713,18.828V112.494z"/>
	<path fill="#666666" d="M490.634,78.972l0.646,10.803c2.109-3.845,4.886-6.791,8.311-8.846c3.505-2.082,7.636-3.144,12.405-3.144
		c5.002,0,9.169,1.187,12.475,3.648c3.38,2.377,5.758,6.019,7.189,10.984c1.928-4.585,4.722-8.135,8.389-10.774
		c3.596-2.572,8.028-3.858,13.226-3.858c6.93,0,12.266,2.338,16.017,6.903c3.809,4.634,5.663,11.77,5.663,21.421v37.873h-7.234
		v-38.081c0-8.006-1.355-13.682-4.185-17.023c-2.826-3.271-6.767-4.943-11.827-4.943c-5.574,0-9.88,1.746-12.885,5.221
		c-3.058,3.48-4.961,7.951-5.646,13.42c0,0.289,0,0.706,0.028,1.198c0.015,0.532,0.033,0.937,0.033,1.128v39.081h-7.285v-38.081
		c0-7.901-1.439-13.483-4.309-16.904c-2.865-3.353-6.791-5.062-11.776-5.062c-5.083,0-9.152,1.3-12.094,3.883
		c-2.991,2.576-5.113,6.074-6.309,10.413v45.752h-7.222V78.972H490.634z"/>
	<path fill="#666666" d="M617.981,145.248c-8.124,0-14.89-3.018-20.276-8.993c-5.388-6.023-8.09-13.632-8.09-22.85v-3.271
		c0-9.338,2.69-17.031,8.042-23.117c5.329-6.16,11.788-9.232,19.381-9.232c8.013,0,14.247,2.516,18.841,7.597
		c4.529,5.017,6.861,11.745,6.861,20.16v6.14h-45.938v1.718c0,7.328,1.962,13.403,5.85,18.357c3.864,4.889,8.961,7.328,15.33,7.328
		c4.464,0,8.296-0.576,11.43-1.82c3.187-1.235,5.887-3.032,8.104-5.344l3.07,4.905c-2.419,2.562-5.542,4.639-9.264,6.166
		C627.6,144.51,623.13,145.248,617.981,145.248 M617.038,83.935c-5.324,0-9.76,1.994-13.385,6.052
		c-3.581,4.038-5.712,9.164-6.293,15.248l0.139,0.308h38.065v-1.812c0-5.635-1.668-10.316-4.969-14.088
		C627.256,85.8,622.722,83.935,617.038,83.935"/>
	<path fill="#666666" d="M663.329,78.972l0.64,11.373c2.098-3.992,4.908-7.109,8.439-9.264c3.521-2.214,7.707-3.296,12.596-3.296
		c7.042,0,12.421,2.181,16.077,6.498c3.663,4.244,5.522,10.979,5.522,20.13v39.569h-7.225v-39.595c0-7.479-1.388-12.757-4.172-15.86
		c-2.786-3.034-6.736-4.593-11.85-4.593c-5.012,0-9.129,1.335-12.332,3.997c-3.192,2.657-5.474,6.187-6.885,10.608v45.442h-7.224
		V78.972H663.329z"/>
	<polygon fill="#666666" points="815.913,62.64 785.812,62.64 785.812,143.982 778.599,143.982 778.599,62.64 748.51,62.64 
		748.51,56.554 815.913,56.554 	"/>
	<path fill="#666666" d="M846.618,145.248c-8.117,0-14.884-3.018-20.314-8.993c-5.388-6.023-8.082-13.632-8.082-22.85v-3.271
		c0-9.338,2.669-17.031,8.079-23.117c5.337-6.16,11.792-9.232,19.385-9.232c7.977,0,14.245,2.516,18.845,7.597
		c4.513,5.017,6.854,11.745,6.854,20.16v6.14h-45.926v1.718c0,7.328,1.971,13.403,5.841,18.357
		c3.872,4.889,8.955,7.328,15.318,7.328c4.45,0,8.309-0.576,11.449-1.82c3.162-1.235,5.877-3.032,8.098-5.344l3.069,4.905
		c-2.426,2.562-5.541,4.639-9.253,6.166C856.248,144.51,851.775,145.248,846.618,145.248 M845.686,83.935
		c-5.326,0-9.799,1.994-13.386,6.052c-3.581,4.038-5.714,9.164-6.28,15.248l0.113,0.308h38.075v-1.812
		c0-5.635-1.672-10.316-5.032-14.088C855.898,85.8,851.376,83.935,845.686,83.935"/>
	<path fill="#666666" d="M909.685,139.085c4.742,0,8.945-1.351,12.566-4.063c3.689-2.715,5.47-6.465,5.47-11.266h6.393l0.135,0.319
		c0.149,6.032-2.241,11.038-7.229,15.078c-4.989,4.052-10.776,6.092-17.334,6.092c-8.888,0-15.707-3.04-20.5-9.084
		c-4.854-6.077-7.258-13.865-7.258-23.396v-2.504c0-9.508,2.408-17.256,7.293-23.315c4.797-6.112,11.611-9.161,20.397-9.161
		c7.081,0,13.042,2.117,17.805,6.343c4.729,4.21,6.99,9.734,6.881,16.592l-0.116,0.312h-6.466c0-5.194-1.707-9.357-5.257-12.472
		c-3.484-3.06-7.771-4.626-12.847-4.626c-6.963,0-12.16,2.481-15.477,7.442c-3.365,5.018-4.996,11.251-4.996,18.851v2.508
		c0,7.656,1.613,13.983,4.97,18.95C897.432,136.623,902.628,139.085,909.685,139.085"/>
	<path fill="#666666" d="M956.493,90.088c2.195-3.864,5.088-6.907,8.666-9.038c3.578-2.203,7.775-3.265,12.629-3.265
		c6.839,0,12.076,2.153,15.729,6.396c3.695,4.238,5.492,10.83,5.492,19.727v40.075h-7.221v-40.273
		c0-7.077-1.332-12.119-4.109-15.209c-2.794-3.02-6.672-4.56-11.549-4.56c-4.885,0-9.01,1.294-12.33,3.877
		c-3.334,2.576-5.752,6.045-7.308,10.287v45.878h-7.176V50.273h7.176V90.088z"/>
	<path fill="#666666" d="M1023.812,78.972l0.706,10.803c2.047-3.845,4.825-6.791,8.303-8.846c3.453-2.082,7.576-3.144,12.36-3.144
		c4.996,0,9.156,1.187,12.461,3.648c3.37,2.377,5.749,6.019,7.199,10.984c1.991-4.585,4.792-8.135,8.391-10.774
		c3.591-2.572,8.021-3.858,13.22-3.858c6.929,0,12.26,2.338,16.078,6.903c3.745,4.634,5.6,11.77,5.6,21.421v37.873h-7.171v-38.081
		c0-8.006-1.407-13.682-4.232-17.023c-2.837-3.271-6.765-4.943-11.848-4.943c-5.539,0-9.817,1.746-12.875,5.221
		c-3.05,3.48-4.939,7.951-5.656,13.42c0,0.289,0.011,0.706,0.033,1.198c0.023,0.532,0.041,0.937,0.041,1.128v39.081h-7.308v-38.081
		c0-7.901-1.424-13.483-4.302-16.904c-2.837-3.353-6.793-5.062-11.769-5.062c-5.062,0-9.104,1.3-12.083,3.883
		c-2.997,2.576-5.077,6.074-6.323,10.413v45.752h-7.229V78.972H1023.812z"/>
	<path fill="#666666" d="M1167.924,143.982c-0.511-2.208-0.861-4.102-1.03-5.71c-0.188-1.609-0.297-3.238-0.297-4.836
		c-2.441,3.374-5.603,6.191-9.612,8.416c-3.997,2.281-8.519,3.393-13.494,3.393c-6.369,0-11.261-1.697-14.797-5.031
		c-3.473-3.388-5.252-7.904-5.252-13.503c0-6.031,2.586-10.865,7.823-14.452c5.169-3.571,12.185-5.386,20.947-5.386h14.385v-8.046
		c0-4.668-1.497-8.289-4.486-10.934c-2.994-2.639-7.179-3.959-12.528-3.959c-4.986,0-9.152,1.252-12.472,3.771
		c-3.268,2.514-4.937,5.615-4.937,9.226l-6.588-0.053l-0.137-0.319c-0.239-4.873,1.959-9.222,6.633-13.028
		c4.689-3.812,10.584-5.746,17.811-5.746c7.178,0,12.929,1.834,17.265,5.468c4.388,3.672,6.597,8.898,6.597,15.69v31.919
		c0,2.322,0.082,4.51,0.346,6.722c0.281,2.128,0.726,4.254,1.294,6.398H1167.924z M1144.314,138.902
		c5.134,0,9.729-1.238,13.685-3.678c3.956-2.405,6.826-5.516,8.598-9.264v-13.579h-14.495c-6.514,0-11.734,1.399-15.61,4.183
		c-3.91,2.793-5.884,6.207-5.884,10.343c0,3.55,1.213,6.439,3.608,8.64C1136.687,137.742,1140.014,138.902,1144.314,138.902"/>
	<polygon fill="#666666" points="1208.441,112.259 1200.147,112.259 1200.147,143.982 1192.925,143.982 1192.925,50.273 
		1200.147,50.273 1200.147,106.173 1207.751,106.173 1231.859,78.972 1240.287,78.972 1240.409,79.284 1214.402,108.599 
		1243.122,143.66 1242.911,143.982 1234.695,143.982 	"/>
	<path fill="#666666" d="M1276.474,145.248c-8.14,0-14.885-3.018-20.273-8.993c-5.367-6.023-8.06-13.632-8.06-22.85v-3.271
		c0-9.338,2.669-17.031,8.008-23.117c5.332-6.16,11.855-9.232,19.439-9.232c7.953,0,14.253,2.516,18.783,7.597
		c4.574,5.017,6.838,11.745,6.838,20.16v6.14h-45.842v1.718c0,7.328,1.908,13.403,5.836,18.357
		c3.872,4.889,8.963,7.328,15.271,7.328c4.492,0,8.301-0.576,11.485-1.82c3.164-1.235,5.881-3.032,8.104-5.344l3.082,4.905
		c-2.43,2.562-5.54,4.639-9.273,6.166C1286.086,144.51,1281.671,145.248,1276.474,145.248 M1275.588,83.935
		c-5.323,0-9.797,1.994-13.387,6.052c-3.621,4.038-5.715,9.164-6.336,15.248l0.127,0.308h38.114v-1.812
		c0-5.635-1.674-10.316-5.024-14.088C1285.802,85.8,1281.29,83.935,1275.588,83.935"/>
	<path fill="#666666" d="M1345.382,85.191l-5.347-0.371c-4.537,0-8.244,1.267-11.154,3.804c-2.894,2.535-4.946,6.053-6.182,10.508
		v44.851h-7.225V78.972h6.28l0.944,10.82v0.746c1.834-4.008,4.35-7.146,7.543-9.363c3.18-2.273,6.924-3.39,11.292-3.39
		c0.911,0,1.835,0.069,2.67,0.21c0.851,0.149,1.586,0.312,2.106,0.479L1345.382,85.191z"/>
	<path fill="#666666" d="M1396.25,127.438c0-3.051-1.24-5.709-3.735-7.958c-2.548-2.331-7.023-4.138-13.55-5.579
		c-7.792-1.69-13.532-3.903-17.224-6.663c-3.688-2.764-5.567-6.653-5.567-11.736c0-4.943,2.131-9.14,6.325-12.553
		c4.116-3.444,9.655-5.163,16.547-5.163c7.336,0,13.168,1.823,17.463,5.43c4.284,3.666,6.301,8.162,6.088,13.598l-0.119,0.371
		h-6.656c0-3.533-1.524-6.646-4.562-9.29c-2.969-2.637-7.048-3.959-12.214-3.959c-5.231,0-9.173,1.119-11.778,3.353
		c-2.627,2.284-3.929,4.913-3.929,7.963c0,2.933,1.127,5.457,3.362,7.365c2.299,1.99,6.799,3.654,13.586,5.137
		c7.719,1.735,13.518,4.072,17.349,7.072c3.831,3.017,5.775,7.082,5.775,12.207c0,5.426-2.229,9.815-6.628,13.208
		c-4.329,3.313-10.145,5.009-17.356,5.009c-7.873,0-14.104-1.906-18.567-5.666c-4.525-3.743-6.637-8.232-6.441-13.431l0.126-0.378
		h6.599c0.302,4.684,2.225,8.035,5.733,10.19c3.604,2.093,7.766,3.121,12.551,3.121c5.192,0,9.293-1.12,12.297-3.376
		C1394.738,133.453,1396.25,130.693,1396.25,127.438"/>
</g>
</svg>
